<mxfile host="Electron" modified="2023-05-13T14:44:16.096Z" agent="Mozilla/5.0 (Windows NT 10.0; Win64; x64) AppleWebKit/537.36 (KHTML, like Gecko) draw.io/21.2.8 Chrome/112.0.5615.165 Electron/24.2.0 Safari/537.36" etag="KrXIe65HKnw-DUaDouKl" version="21.2.8" type="device" pages="3">
  <diagram id="C5RBs43oDa-KdzZeNtuy" name="Page-1">
    <mxGraphModel dx="1695" dy="985" grid="1" gridSize="10" guides="1" tooltips="1" connect="1" arrows="1" fold="1" page="1" pageScale="1" pageWidth="827" pageHeight="1169" math="0" shadow="0">
      <root>
        <mxCell id="WIyWlLk6GJQsqaUBKTNV-0" />
        <mxCell id="WIyWlLk6GJQsqaUBKTNV-1" parent="WIyWlLk6GJQsqaUBKTNV-0" />
        <mxCell id="qPoDiFishbTBftlHVHzy-0" value="&lt;font style=&quot;font-size: 24px;&quot;&gt;Start&lt;/font&gt;" style="ellipse;whiteSpace=wrap;html=1;" parent="WIyWlLk6GJQsqaUBKTNV-1" vertex="1">
          <mxGeometry x="350" y="20" width="100" height="50" as="geometry" />
        </mxCell>
        <mxCell id="qPoDiFishbTBftlHVHzy-2" value="&lt;font style=&quot;font-size: 20px;&quot;&gt;initializing all variables&lt;/font&gt;" style="rounded=0;whiteSpace=wrap;html=1;" parent="WIyWlLk6GJQsqaUBKTNV-1" vertex="1">
          <mxGeometry x="335" y="100" width="130" height="70" as="geometry" />
        </mxCell>
        <mxCell id="qPoDiFishbTBftlHVHzy-4" value="" style="endArrow=classic;html=1;rounded=0;exitX=0.5;exitY=1;exitDx=0;exitDy=0;entryX=0.5;entryY=0;entryDx=0;entryDy=0;" parent="WIyWlLk6GJQsqaUBKTNV-1" source="qPoDiFishbTBftlHVHzy-2" target="qPoDiFishbTBftlHVHzy-5" edge="1">
          <mxGeometry width="50" height="50" relative="1" as="geometry">
            <mxPoint x="420" y="220" as="sourcePoint" />
            <mxPoint x="400" y="210" as="targetPoint" />
          </mxGeometry>
        </mxCell>
        <mxCell id="qPoDiFishbTBftlHVHzy-5" value="&lt;font style=&quot;font-size: 20px;&quot;&gt;Display &#39;Welcome Message&#39;&lt;/font&gt;" style="shape=parallelogram;perimeter=parallelogramPerimeter;whiteSpace=wrap;html=1;fixedSize=1;" parent="WIyWlLk6GJQsqaUBKTNV-1" vertex="1">
          <mxGeometry x="297.5" y="200" width="205" height="70" as="geometry" />
        </mxCell>
        <mxCell id="qPoDiFishbTBftlHVHzy-6" value="" style="endArrow=classic;html=1;rounded=0;exitX=0.5;exitY=1;exitDx=0;exitDy=0;entryX=0.5;entryY=0;entryDx=0;entryDy=0;" parent="WIyWlLk6GJQsqaUBKTNV-1" source="qPoDiFishbTBftlHVHzy-5" target="qPoDiFishbTBftlHVHzy-8" edge="1">
          <mxGeometry width="50" height="50" relative="1" as="geometry">
            <mxPoint x="380" y="410" as="sourcePoint" />
            <mxPoint x="400" y="310" as="targetPoint" />
          </mxGeometry>
        </mxCell>
        <mxCell id="qPoDiFishbTBftlHVHzy-8" value="&lt;font style=&quot;font-size: 18px;&quot;&gt;Read choice&lt;/font&gt;" style="rounded=0;whiteSpace=wrap;html=1;" parent="WIyWlLk6GJQsqaUBKTNV-1" vertex="1">
          <mxGeometry x="345" y="300" width="110" height="40" as="geometry" />
        </mxCell>
        <mxCell id="qPoDiFishbTBftlHVHzy-9" value="" style="endArrow=classic;html=1;rounded=0;exitX=0.5;exitY=1;exitDx=0;exitDy=0;entryX=0.5;entryY=0;entryDx=0;entryDy=0;" parent="WIyWlLk6GJQsqaUBKTNV-1" source="qPoDiFishbTBftlHVHzy-8" target="qPoDiFishbTBftlHVHzy-10" edge="1">
          <mxGeometry width="50" height="50" relative="1" as="geometry">
            <mxPoint x="399.5" y="350" as="sourcePoint" />
            <mxPoint x="399.5" y="380" as="targetPoint" />
          </mxGeometry>
        </mxCell>
        <mxCell id="qPoDiFishbTBftlHVHzy-10" value="&lt;font style=&quot;font-size: 15px;&quot;&gt;choice not &#39;T&#39; or &#39;t&#39; ?&lt;/font&gt;" style="rhombus;whiteSpace=wrap;html=1;" parent="WIyWlLk6GJQsqaUBKTNV-1" vertex="1">
          <mxGeometry x="325" y="370" width="150" height="90" as="geometry" />
        </mxCell>
        <mxCell id="SKX0DVYrpK4UwVWIQHKd-2" value="" style="endArrow=classic;html=1;rounded=0;exitX=0.5;exitY=1;exitDx=0;exitDy=0;entryX=0.5;entryY=0;entryDx=0;entryDy=0;" parent="WIyWlLk6GJQsqaUBKTNV-1" source="qPoDiFishbTBftlHVHzy-0" target="qPoDiFishbTBftlHVHzy-2" edge="1">
          <mxGeometry width="50" height="50" relative="1" as="geometry">
            <mxPoint x="399.5" y="70" as="sourcePoint" />
            <mxPoint x="399.5" y="100" as="targetPoint" />
          </mxGeometry>
        </mxCell>
        <mxCell id="SKX0DVYrpK4UwVWIQHKd-5" value="" style="endArrow=classic;html=1;rounded=0;entryX=0.5;entryY=0;entryDx=0;entryDy=0;exitX=0.5;exitY=1;exitDx=0;exitDy=0;" parent="WIyWlLk6GJQsqaUBKTNV-1" source="qPoDiFishbTBftlHVHzy-10" target="SKX0DVYrpK4UwVWIQHKd-6" edge="1">
          <mxGeometry width="50" height="50" relative="1" as="geometry">
            <mxPoint x="399.5" y="460" as="sourcePoint" />
            <mxPoint x="399.5" y="490" as="targetPoint" />
          </mxGeometry>
        </mxCell>
        <mxCell id="SKX0DVYrpK4UwVWIQHKd-6" value="&lt;font style=&quot;font-size: 18px;&quot;&gt;Display &#39;dice message&#39;&lt;/font&gt;" style="rounded=0;whiteSpace=wrap;html=1;" parent="WIyWlLk6GJQsqaUBKTNV-1" vertex="1">
          <mxGeometry x="340" y="490" width="120" height="60" as="geometry" />
        </mxCell>
        <mxCell id="SKX0DVYrpK4UwVWIQHKd-7" value="" style="endArrow=classic;html=1;rounded=0;entryX=0.5;entryY=0;entryDx=0;entryDy=0;exitX=0.5;exitY=1;exitDx=0;exitDy=0;" parent="WIyWlLk6GJQsqaUBKTNV-1" source="SKX0DVYrpK4UwVWIQHKd-6" target="SKX0DVYrpK4UwVWIQHKd-8" edge="1">
          <mxGeometry width="50" height="50" relative="1" as="geometry">
            <mxPoint x="399.5" y="550" as="sourcePoint" />
            <mxPoint x="399.5" y="580" as="targetPoint" />
          </mxGeometry>
        </mxCell>
        <mxCell id="SKX0DVYrpK4UwVWIQHKd-9" value="" style="edgeStyle=orthogonalEdgeStyle;rounded=0;orthogonalLoop=1;jettySize=auto;html=1;entryX=0.5;entryY=0;entryDx=0;entryDy=0;" parent="WIyWlLk6GJQsqaUBKTNV-1" source="SKX0DVYrpK4UwVWIQHKd-8" target="SKX0DVYrpK4UwVWIQHKd-10" edge="1">
          <mxGeometry relative="1" as="geometry">
            <mxPoint x="400" y="690" as="targetPoint" />
          </mxGeometry>
        </mxCell>
        <mxCell id="SKX0DVYrpK4UwVWIQHKd-8" value="&lt;font style=&quot;font-size: 18px;&quot;&gt;Generate random Points between 2500 and 500&lt;/font&gt;" style="rounded=0;whiteSpace=wrap;html=1;" parent="WIyWlLk6GJQsqaUBKTNV-1" vertex="1">
          <mxGeometry x="317.5" y="590" width="165" height="75" as="geometry" />
        </mxCell>
        <mxCell id="SKX0DVYrpK4UwVWIQHKd-13" value="" style="edgeStyle=orthogonalEdgeStyle;rounded=0;orthogonalLoop=1;jettySize=auto;html=1;" parent="WIyWlLk6GJQsqaUBKTNV-1" source="SKX0DVYrpK4UwVWIQHKd-10" target="SKX0DVYrpK4UwVWIQHKd-12" edge="1">
          <mxGeometry relative="1" as="geometry" />
        </mxCell>
        <mxCell id="SKX0DVYrpK4UwVWIQHKd-10" value="&lt;font style=&quot;font-size: 16px;&quot;&gt;set Wormhole chances to 22%&lt;/font&gt;" style="rounded=0;whiteSpace=wrap;html=1;" parent="WIyWlLk6GJQsqaUBKTNV-1" vertex="1">
          <mxGeometry x="340" y="690" width="120" height="60" as="geometry" />
        </mxCell>
        <mxCell id="SKX0DVYrpK4UwVWIQHKd-17" value="" style="edgeStyle=orthogonalEdgeStyle;rounded=0;orthogonalLoop=1;jettySize=auto;html=1;" parent="WIyWlLk6GJQsqaUBKTNV-1" source="SKX0DVYrpK4UwVWIQHKd-12" target="SKX0DVYrpK4UwVWIQHKd-16" edge="1">
          <mxGeometry relative="1" as="geometry" />
        </mxCell>
        <mxCell id="SKX0DVYrpK4UwVWIQHKd-12" value="&lt;font style=&quot;font-size: 16px;&quot;&gt;increment count by 1&lt;/font&gt;" style="whiteSpace=wrap;html=1;rounded=0;" parent="WIyWlLk6GJQsqaUBKTNV-1" vertex="1">
          <mxGeometry x="350" y="780" width="100" height="50" as="geometry" />
        </mxCell>
        <mxCell id="SKX0DVYrpK4UwVWIQHKd-19" value="" style="edgeStyle=orthogonalEdgeStyle;rounded=0;orthogonalLoop=1;jettySize=auto;html=1;" parent="WIyWlLk6GJQsqaUBKTNV-1" source="SKX0DVYrpK4UwVWIQHKd-16" target="SKX0DVYrpK4UwVWIQHKd-18" edge="1">
          <mxGeometry relative="1" as="geometry" />
        </mxCell>
        <mxCell id="SKX0DVYrpK4UwVWIQHKd-16" value="&lt;font style=&quot;font-size: 16px;&quot;&gt;count = 100 ?&lt;/font&gt;" style="rhombus;whiteSpace=wrap;html=1;rounded=0;" parent="WIyWlLk6GJQsqaUBKTNV-1" vertex="1">
          <mxGeometry x="345" y="860" width="110" height="95" as="geometry" />
        </mxCell>
        <mxCell id="SKX0DVYrpK4UwVWIQHKd-18" value="&lt;font style=&quot;font-size: 24px;&quot;&gt;A&lt;/font&gt;" style="ellipse;whiteSpace=wrap;html=1;rounded=0;" parent="WIyWlLk6GJQsqaUBKTNV-1" vertex="1">
          <mxGeometry x="370" y="1010" width="60" height="57.5" as="geometry" />
        </mxCell>
        <mxCell id="SKX0DVYrpK4UwVWIQHKd-20" value="" style="endArrow=classic;html=1;rounded=0;exitX=0;exitY=0.5;exitDx=0;exitDy=0;" parent="WIyWlLk6GJQsqaUBKTNV-1" source="SKX0DVYrpK4UwVWIQHKd-16" edge="1">
          <mxGeometry width="50" height="50" relative="1" as="geometry">
            <mxPoint x="270" y="960" as="sourcePoint" />
            <mxPoint x="120" y="910" as="targetPoint" />
          </mxGeometry>
        </mxCell>
        <mxCell id="SKX0DVYrpK4UwVWIQHKd-21" value="" style="endArrow=classic;html=1;rounded=0;" parent="WIyWlLk6GJQsqaUBKTNV-1" edge="1">
          <mxGeometry width="50" height="50" relative="1" as="geometry">
            <mxPoint x="120" y="560" as="sourcePoint" />
            <mxPoint x="400" y="560" as="targetPoint" />
          </mxGeometry>
        </mxCell>
        <mxCell id="SKX0DVYrpK4UwVWIQHKd-22" value="" style="endArrow=classic;html=1;rounded=0;" parent="WIyWlLk6GJQsqaUBKTNV-1" edge="1">
          <mxGeometry width="50" height="50" relative="1" as="geometry">
            <mxPoint x="120" y="910" as="sourcePoint" />
            <mxPoint x="120" y="560" as="targetPoint" />
          </mxGeometry>
        </mxCell>
        <mxCell id="SKX0DVYrpK4UwVWIQHKd-23" value="" style="endArrow=classic;html=1;rounded=0;exitX=1;exitY=0.5;exitDx=0;exitDy=0;entryX=0;entryY=0.5;entryDx=0;entryDy=0;" parent="WIyWlLk6GJQsqaUBKTNV-1" source="qPoDiFishbTBftlHVHzy-10" target="SKX0DVYrpK4UwVWIQHKd-24" edge="1">
          <mxGeometry width="50" height="50" relative="1" as="geometry">
            <mxPoint x="410" y="350" as="sourcePoint" />
            <mxPoint x="520" y="415" as="targetPoint" />
          </mxGeometry>
        </mxCell>
        <mxCell id="SKX0DVYrpK4UwVWIQHKd-27" value="" style="edgeStyle=orthogonalEdgeStyle;rounded=0;orthogonalLoop=1;jettySize=auto;html=1;" parent="WIyWlLk6GJQsqaUBKTNV-1" source="SKX0DVYrpK4UwVWIQHKd-24" target="SKX0DVYrpK4UwVWIQHKd-26" edge="1">
          <mxGeometry relative="1" as="geometry" />
        </mxCell>
        <mxCell id="SKX0DVYrpK4UwVWIQHKd-24" value="&lt;font style=&quot;font-size: 16px;&quot;&gt;Display &#39;error message&#39;&lt;/font&gt;" style="rounded=0;whiteSpace=wrap;html=1;" parent="WIyWlLk6GJQsqaUBKTNV-1" vertex="1">
          <mxGeometry x="510" y="395" width="120" height="40" as="geometry" />
        </mxCell>
        <mxCell id="SKX0DVYrpK4UwVWIQHKd-26" value="&lt;font style=&quot;font-size: 16px;&quot;&gt;wait 5 seconds&lt;/font&gt;" style="whiteSpace=wrap;html=1;rounded=0;" parent="WIyWlLk6GJQsqaUBKTNV-1" vertex="1">
          <mxGeometry x="660" y="385" width="120" height="60" as="geometry" />
        </mxCell>
        <mxCell id="SKX0DVYrpK4UwVWIQHKd-28" value="" style="endArrow=classic;html=1;rounded=0;" parent="WIyWlLk6GJQsqaUBKTNV-1" edge="1">
          <mxGeometry width="50" height="50" relative="1" as="geometry">
            <mxPoint x="810" y="280" as="sourcePoint" />
            <mxPoint x="400" y="280" as="targetPoint" />
          </mxGeometry>
        </mxCell>
        <mxCell id="SKX0DVYrpK4UwVWIQHKd-29" value="" style="endArrow=classic;html=1;rounded=0;exitX=1;exitY=0.5;exitDx=0;exitDy=0;" parent="WIyWlLk6GJQsqaUBKTNV-1" source="SKX0DVYrpK4UwVWIQHKd-26" edge="1">
          <mxGeometry width="50" height="50" relative="1" as="geometry">
            <mxPoint x="485" y="425" as="sourcePoint" />
            <mxPoint x="810" y="415" as="targetPoint" />
          </mxGeometry>
        </mxCell>
        <mxCell id="SKX0DVYrpK4UwVWIQHKd-30" value="" style="endArrow=classic;html=1;rounded=0;" parent="WIyWlLk6GJQsqaUBKTNV-1" edge="1">
          <mxGeometry width="50" height="50" relative="1" as="geometry">
            <mxPoint x="810" y="420" as="sourcePoint" />
            <mxPoint x="810" y="280" as="targetPoint" />
          </mxGeometry>
        </mxCell>
        <mxCell id="SKX0DVYrpK4UwVWIQHKd-31" value="&lt;font style=&quot;font-size: 16px;&quot;&gt;Yes&lt;/font&gt;" style="text;html=1;align=center;verticalAlign=middle;resizable=0;points=[];autosize=1;strokeColor=none;fillColor=none;" parent="WIyWlLk6GJQsqaUBKTNV-1" vertex="1">
          <mxGeometry x="460" y="383" width="50" height="30" as="geometry" />
        </mxCell>
        <mxCell id="SKX0DVYrpK4UwVWIQHKd-32" value="&lt;font style=&quot;font-size: 16px;&quot;&gt;Yes&lt;/font&gt;" style="text;html=1;align=center;verticalAlign=middle;resizable=0;points=[];autosize=1;strokeColor=none;fillColor=none;" parent="WIyWlLk6GJQsqaUBKTNV-1" vertex="1">
          <mxGeometry x="400" y="963" width="50" height="30" as="geometry" />
        </mxCell>
        <mxCell id="SKX0DVYrpK4UwVWIQHKd-33" value="&lt;font style=&quot;font-size: 16px;&quot;&gt;No&lt;/font&gt;" style="text;html=1;align=center;verticalAlign=middle;resizable=0;points=[];autosize=1;strokeColor=none;fillColor=none;" parent="WIyWlLk6GJQsqaUBKTNV-1" vertex="1">
          <mxGeometry x="308" y="878" width="40" height="30" as="geometry" />
        </mxCell>
        <mxCell id="SKX0DVYrpK4UwVWIQHKd-35" value="&lt;font style=&quot;font-size: 16px;&quot;&gt;No&lt;/font&gt;" style="text;html=1;align=center;verticalAlign=middle;resizable=0;points=[];autosize=1;strokeColor=none;fillColor=none;" parent="WIyWlLk6GJQsqaUBKTNV-1" vertex="1">
          <mxGeometry x="403" y="555" width="40" height="30" as="geometry" />
        </mxCell>
      </root>
    </mxGraphModel>
  </diagram>
  <diagram id="wvyxLCLKiArf59dd1MGM" name="Page-2">
    <mxGraphModel dx="1695" dy="985" grid="1" gridSize="10" guides="1" tooltips="1" connect="1" arrows="1" fold="1" page="1" pageScale="1" pageWidth="850" pageHeight="1100" math="0" shadow="0">
      <root>
        <mxCell id="0" />
        <mxCell id="1" parent="0" />
        <mxCell id="8ApIJLALtYoWhLFtLDIA-3" value="" style="edgeStyle=orthogonalEdgeStyle;rounded=0;orthogonalLoop=1;jettySize=auto;html=1;" parent="1" source="8ApIJLALtYoWhLFtLDIA-1" target="8ApIJLALtYoWhLFtLDIA-2" edge="1">
          <mxGeometry relative="1" as="geometry" />
        </mxCell>
        <mxCell id="8ApIJLALtYoWhLFtLDIA-1" value="&lt;font style=&quot;font-size: 24px;&quot;&gt;A&lt;/font&gt;" style="ellipse;whiteSpace=wrap;html=1;aspect=fixed;" parent="1" vertex="1">
          <mxGeometry x="395" y="20" width="60" height="60" as="geometry" />
        </mxCell>
        <mxCell id="8ApIJLALtYoWhLFtLDIA-5" value="" style="edgeStyle=orthogonalEdgeStyle;rounded=0;orthogonalLoop=1;jettySize=auto;html=1;" parent="1" source="8ApIJLALtYoWhLFtLDIA-2" target="8ApIJLALtYoWhLFtLDIA-4" edge="1">
          <mxGeometry relative="1" as="geometry" />
        </mxCell>
        <mxCell id="HOv9jgXNRHUHMUnJMghf-4" value="" style="edgeStyle=orthogonalEdgeStyle;rounded=0;orthogonalLoop=1;jettySize=auto;html=1;" parent="1" source="8ApIJLALtYoWhLFtLDIA-2" target="HOv9jgXNRHUHMUnJMghf-3" edge="1">
          <mxGeometry relative="1" as="geometry" />
        </mxCell>
        <mxCell id="8ApIJLALtYoWhLFtLDIA-2" value="&lt;font style=&quot;font-size: 12px;&quot;&gt;currentAsteroid less than numAsteroid and lives greater than 0 and totalMoney greater or equal to 0 ?&lt;/font&gt;" style="rhombus;whiteSpace=wrap;html=1;" parent="1" vertex="1">
          <mxGeometry x="342" y="110" width="167" height="160" as="geometry" />
        </mxCell>
        <mxCell id="WT8dmQ3Fdkca9aJlQ12L-2" value="" style="edgeStyle=orthogonalEdgeStyle;rounded=0;orthogonalLoop=1;jettySize=auto;html=1;" parent="1" source="8ApIJLALtYoWhLFtLDIA-4" target="WT8dmQ3Fdkca9aJlQ12L-1" edge="1">
          <mxGeometry relative="1" as="geometry" />
        </mxCell>
        <mxCell id="8ApIJLALtYoWhLFtLDIA-4" value="&lt;font style=&quot;font-size: 16px;&quot;&gt;Display &#39;roll message&#39;&lt;/font&gt;" style="shape=parallelogram;perimeter=parallelogramPerimeter;whiteSpace=wrap;html=1;fixedSize=1;" parent="1" vertex="1">
          <mxGeometry x="353" y="300" width="145" height="50" as="geometry" />
        </mxCell>
        <mxCell id="WT8dmQ3Fdkca9aJlQ12L-4" value="" style="edgeStyle=orthogonalEdgeStyle;rounded=0;orthogonalLoop=1;jettySize=auto;html=1;" parent="1" source="WT8dmQ3Fdkca9aJlQ12L-1" target="WT8dmQ3Fdkca9aJlQ12L-3" edge="1">
          <mxGeometry relative="1" as="geometry" />
        </mxCell>
        <mxCell id="HOv9jgXNRHUHMUnJMghf-9" value="" style="edgeStyle=orthogonalEdgeStyle;rounded=0;orthogonalLoop=1;jettySize=auto;html=1;" parent="1" source="WT8dmQ3Fdkca9aJlQ12L-1" target="HOv9jgXNRHUHMUnJMghf-8" edge="1">
          <mxGeometry relative="1" as="geometry" />
        </mxCell>
        <mxCell id="WT8dmQ3Fdkca9aJlQ12L-1" value="&lt;font style=&quot;font-size: 16px;&quot;&gt;roll choice not &#39;R&#39; or &#39;r&#39; ?&lt;/font&gt;" style="rhombus;whiteSpace=wrap;html=1;" parent="1" vertex="1">
          <mxGeometry x="368" y="380" width="114.5" height="100" as="geometry" />
        </mxCell>
        <mxCell id="WT8dmQ3Fdkca9aJlQ12L-6" value="" style="edgeStyle=orthogonalEdgeStyle;rounded=0;orthogonalLoop=1;jettySize=auto;html=1;" parent="1" source="WT8dmQ3Fdkca9aJlQ12L-3" target="WT8dmQ3Fdkca9aJlQ12L-5" edge="1">
          <mxGeometry relative="1" as="geometry" />
        </mxCell>
        <mxCell id="WT8dmQ3Fdkca9aJlQ12L-3" value="&lt;font style=&quot;font-size: 16px;&quot;&gt;die 1 = Random Number between 1 and 6&lt;br&gt;die 2 = Random Number between 1 and 6&lt;/font&gt;" style="whiteSpace=wrap;html=1;" parent="1" vertex="1">
          <mxGeometry x="268" y="510" width="314.75" height="50" as="geometry" />
        </mxCell>
        <mxCell id="WT8dmQ3Fdkca9aJlQ12L-8" value="" style="edgeStyle=orthogonalEdgeStyle;rounded=0;orthogonalLoop=1;jettySize=auto;html=1;" parent="1" source="WT8dmQ3Fdkca9aJlQ12L-5" target="WT8dmQ3Fdkca9aJlQ12L-7" edge="1">
          <mxGeometry relative="1" as="geometry" />
        </mxCell>
        <mxCell id="WT8dmQ3Fdkca9aJlQ12L-5" value="&lt;font style=&quot;font-size: 16px;&quot;&gt;diceResult = dice1 + dice 2&lt;/font&gt;" style="whiteSpace=wrap;html=1;" parent="1" vertex="1">
          <mxGeometry x="323" y="590" width="204.63" height="35" as="geometry" />
        </mxCell>
        <mxCell id="WT8dmQ3Fdkca9aJlQ12L-10" value="" style="edgeStyle=orthogonalEdgeStyle;rounded=0;orthogonalLoop=1;jettySize=auto;html=1;" parent="1" source="WT8dmQ3Fdkca9aJlQ12L-7" target="WT8dmQ3Fdkca9aJlQ12L-9" edge="1">
          <mxGeometry relative="1" as="geometry" />
        </mxCell>
        <mxCell id="WT8dmQ3Fdkca9aJlQ12L-7" value="&lt;font style=&quot;font-size: 16px;&quot;&gt;currentAsteroid + diceResult&lt;/font&gt;" style="whiteSpace=wrap;html=1;" parent="1" vertex="1">
          <mxGeometry x="313" y="666" width="224.69" height="37.5" as="geometry" />
        </mxCell>
        <mxCell id="WT8dmQ3Fdkca9aJlQ12L-12" value="" style="edgeStyle=orthogonalEdgeStyle;rounded=0;orthogonalLoop=1;jettySize=auto;html=1;" parent="1" source="WT8dmQ3Fdkca9aJlQ12L-9" target="WT8dmQ3Fdkca9aJlQ12L-11" edge="1">
          <mxGeometry relative="1" as="geometry" />
        </mxCell>
        <mxCell id="WT8dmQ3Fdkca9aJlQ12L-9" value="&lt;font style=&quot;font-size: 16px;&quot;&gt;currentAsteroid greater than numAsteroid ?&lt;/font&gt;" style="rhombus;whiteSpace=wrap;html=1;" parent="1" vertex="1">
          <mxGeometry x="343" y="740" width="164.65" height="133.75" as="geometry" />
        </mxCell>
        <mxCell id="WT8dmQ3Fdkca9aJlQ12L-14" value="" style="edgeStyle=orthogonalEdgeStyle;rounded=0;orthogonalLoop=1;jettySize=auto;html=1;" parent="1" source="WT8dmQ3Fdkca9aJlQ12L-11" target="WT8dmQ3Fdkca9aJlQ12L-13" edge="1">
          <mxGeometry relative="1" as="geometry" />
        </mxCell>
        <mxCell id="WT8dmQ3Fdkca9aJlQ12L-11" value="&lt;font style=&quot;font-size: 16px;&quot;&gt;currentAsteroid equals to numAsteroid&lt;/font&gt;" style="whiteSpace=wrap;html=1;" parent="1" vertex="1">
          <mxGeometry x="338.19" y="910" width="174.63" height="49.38" as="geometry" />
        </mxCell>
        <mxCell id="WT8dmQ3Fdkca9aJlQ12L-13" value="&lt;font style=&quot;font-size: 24px;&quot;&gt;B&lt;/font&gt;" style="ellipse;whiteSpace=wrap;html=1;" parent="1" vertex="1">
          <mxGeometry x="392.99" y="1000" width="64.51" height="65.93" as="geometry" />
        </mxCell>
        <mxCell id="WT8dmQ3Fdkca9aJlQ12L-15" value="" style="endArrow=classic;html=1;rounded=0;exitX=0;exitY=0.5;exitDx=0;exitDy=0;" parent="1" source="WT8dmQ3Fdkca9aJlQ12L-9" edge="1">
          <mxGeometry width="50" height="50" relative="1" as="geometry">
            <mxPoint x="400" y="550" as="sourcePoint" />
            <mxPoint x="240" y="807" as="targetPoint" />
          </mxGeometry>
        </mxCell>
        <mxCell id="WT8dmQ3Fdkca9aJlQ12L-16" value="" style="endArrow=classic;html=1;rounded=0;" parent="1" edge="1">
          <mxGeometry width="50" height="50" relative="1" as="geometry">
            <mxPoint x="240" y="640" as="sourcePoint" />
            <mxPoint x="425" y="640" as="targetPoint" />
          </mxGeometry>
        </mxCell>
        <mxCell id="WT8dmQ3Fdkca9aJlQ12L-17" value="" style="endArrow=classic;html=1;rounded=0;" parent="1" edge="1">
          <mxGeometry width="50" height="50" relative="1" as="geometry">
            <mxPoint x="240" y="807" as="sourcePoint" />
            <mxPoint x="240" y="640" as="targetPoint" />
          </mxGeometry>
        </mxCell>
        <mxCell id="WT8dmQ3Fdkca9aJlQ12L-22" value="" style="edgeStyle=orthogonalEdgeStyle;rounded=0;orthogonalLoop=1;jettySize=auto;html=1;exitX=1;exitY=0.5;exitDx=0;exitDy=0;" parent="1" source="HOv9jgXNRHUHMUnJMghf-8" target="WT8dmQ3Fdkca9aJlQ12L-21" edge="1">
          <mxGeometry relative="1" as="geometry">
            <mxPoint x="650.25" y="430" as="sourcePoint" />
          </mxGeometry>
        </mxCell>
        <mxCell id="WT8dmQ3Fdkca9aJlQ12L-21" value="&lt;font style=&quot;font-size: 16px;&quot;&gt;wait 5 seconds&lt;/font&gt;" style="whiteSpace=wrap;html=1;" parent="1" vertex="1">
          <mxGeometry x="690" y="405" width="84.63" height="50" as="geometry" />
        </mxCell>
        <mxCell id="WT8dmQ3Fdkca9aJlQ12L-23" value="" style="endArrow=classic;html=1;rounded=0;exitX=1;exitY=0.5;exitDx=0;exitDy=0;" parent="1" source="WT8dmQ3Fdkca9aJlQ12L-21" edge="1">
          <mxGeometry width="50" height="50" relative="1" as="geometry">
            <mxPoint x="810" y="429.5" as="sourcePoint" />
            <mxPoint x="830" y="430" as="targetPoint" />
          </mxGeometry>
        </mxCell>
        <mxCell id="WT8dmQ3Fdkca9aJlQ12L-24" value="" style="endArrow=classic;html=1;rounded=0;" parent="1" edge="1">
          <mxGeometry width="50" height="50" relative="1" as="geometry">
            <mxPoint x="829" y="430" as="sourcePoint" />
            <mxPoint x="829" y="280" as="targetPoint" />
          </mxGeometry>
        </mxCell>
        <mxCell id="WT8dmQ3Fdkca9aJlQ12L-25" value="" style="endArrow=classic;html=1;rounded=0;" parent="1" edge="1">
          <mxGeometry width="50" height="50" relative="1" as="geometry">
            <mxPoint x="830" y="285" as="sourcePoint" />
            <mxPoint x="425" y="285" as="targetPoint" />
          </mxGeometry>
        </mxCell>
        <mxCell id="WT8dmQ3Fdkca9aJlQ12L-26" value="&lt;font style=&quot;font-size: 16px;&quot;&gt;Yes&lt;/font&gt;" style="text;html=1;align=center;verticalAlign=middle;resizable=0;points=[];autosize=1;strokeColor=none;fillColor=none;" parent="1" vertex="1">
          <mxGeometry x="422.5" y="260" width="50" height="30" as="geometry" />
        </mxCell>
        <mxCell id="HOv9jgXNRHUHMUnJMghf-1" value="&lt;font style=&quot;font-size: 16px;&quot;&gt;Yes&lt;/font&gt;" style="text;html=1;align=center;verticalAlign=middle;resizable=0;points=[];autosize=1;strokeColor=none;fillColor=none;" parent="1" vertex="1">
          <mxGeometry x="473.5" y="403" width="50" height="30" as="geometry" />
        </mxCell>
        <mxCell id="HOv9jgXNRHUHMUnJMghf-2" value="&lt;font style=&quot;font-size: 16px;&quot;&gt;Yes&lt;/font&gt;" style="text;html=1;align=center;verticalAlign=middle;resizable=0;points=[];autosize=1;strokeColor=none;fillColor=none;" parent="1" vertex="1">
          <mxGeometry x="420" y="873.75" width="50" height="30" as="geometry" />
        </mxCell>
        <mxCell id="HOv9jgXNRHUHMUnJMghf-6" value="" style="edgeStyle=orthogonalEdgeStyle;rounded=0;orthogonalLoop=1;jettySize=auto;html=1;" parent="1" source="HOv9jgXNRHUHMUnJMghf-3" target="HOv9jgXNRHUHMUnJMghf-5" edge="1">
          <mxGeometry relative="1" as="geometry" />
        </mxCell>
        <mxCell id="HOv9jgXNRHUHMUnJMghf-3" value="&lt;font style=&quot;font-size: 16px;&quot;&gt;Display &#39;Game Over message&#39;&lt;/font&gt;" style="shape=parallelogram;perimeter=parallelogramPerimeter;whiteSpace=wrap;html=1;fixedSize=1;" parent="1" vertex="1">
          <mxGeometry x="543.69" y="165" width="177.5" height="50" as="geometry" />
        </mxCell>
        <mxCell id="HOv9jgXNRHUHMUnJMghf-5" value="&lt;font style=&quot;font-size: 24px;&quot;&gt;Z&lt;/font&gt;" style="ellipse;whiteSpace=wrap;html=1;" parent="1" vertex="1">
          <mxGeometry x="750" y="160" width="60" height="60" as="geometry" />
        </mxCell>
        <mxCell id="HOv9jgXNRHUHMUnJMghf-8" value="&lt;font style=&quot;font-size: 16px;&quot;&gt;Display &#39;error message&#39;&lt;/font&gt;" style="shape=parallelogram;perimeter=parallelogramPerimeter;whiteSpace=wrap;html=1;fixedSize=1;" parent="1" vertex="1">
          <mxGeometry x="527.63" y="405" width="132.37" height="50" as="geometry" />
        </mxCell>
        <mxCell id="HOv9jgXNRHUHMUnJMghf-10" value="&lt;font style=&quot;font-size: 16px;&quot;&gt;No&lt;/font&gt;" style="text;html=1;align=center;verticalAlign=middle;resizable=0;points=[];autosize=1;strokeColor=none;fillColor=none;" parent="1" vertex="1">
          <mxGeometry x="501.65" y="162" width="40" height="30" as="geometry" />
        </mxCell>
        <mxCell id="HOv9jgXNRHUHMUnJMghf-11" value="&lt;font style=&quot;font-size: 16px;&quot;&gt;No&lt;/font&gt;" style="text;html=1;align=center;verticalAlign=middle;resizable=0;points=[];autosize=1;strokeColor=none;fillColor=none;" parent="1" vertex="1">
          <mxGeometry x="421" y="477" width="40" height="30" as="geometry" />
        </mxCell>
        <mxCell id="HOv9jgXNRHUHMUnJMghf-12" value="&lt;font style=&quot;font-size: 16px;&quot;&gt;No&lt;/font&gt;" style="text;html=1;align=center;verticalAlign=middle;resizable=0;points=[];autosize=1;strokeColor=none;fillColor=none;" parent="1" vertex="1">
          <mxGeometry x="308" y="780" width="40" height="30" as="geometry" />
        </mxCell>
        <mxCell id="XYIB9z67I_TNwNrnsXgF-1" value="&lt;font style=&quot;font-size: 24px;&quot;&gt;R&lt;/font&gt;" style="ellipse;whiteSpace=wrap;html=1;aspect=fixed;" parent="1" vertex="1">
          <mxGeometry x="254" y="252" width="60" height="60" as="geometry" />
        </mxCell>
        <mxCell id="XYIB9z67I_TNwNrnsXgF-2" value="" style="endArrow=classic;html=1;rounded=0;exitX=1;exitY=0.5;exitDx=0;exitDy=0;" parent="1" source="XYIB9z67I_TNwNrnsXgF-1" edge="1">
          <mxGeometry width="50" height="50" relative="1" as="geometry">
            <mxPoint x="305" y="296" as="sourcePoint" />
            <mxPoint x="425" y="281" as="targetPoint" />
          </mxGeometry>
        </mxCell>
      </root>
    </mxGraphModel>
  </diagram>
  <diagram id="GJCLtswbGSqBweHo3Sgb" name="Page-3">
    <mxGraphModel dx="1695" dy="985" grid="1" gridSize="10" guides="1" tooltips="1" connect="1" arrows="1" fold="1" page="1" pageScale="1" pageWidth="850" pageHeight="1100" math="0" shadow="0">
      <root>
        <mxCell id="0" />
        <mxCell id="1" parent="0" />
        <mxCell id="btgZ3AGMcQ4EXrpiKgPW-3" value="" style="edgeStyle=orthogonalEdgeStyle;rounded=0;orthogonalLoop=1;jettySize=auto;html=1;" parent="1" source="btgZ3AGMcQ4EXrpiKgPW-1" target="btgZ3AGMcQ4EXrpiKgPW-2" edge="1">
          <mxGeometry relative="1" as="geometry" />
        </mxCell>
        <mxCell id="btgZ3AGMcQ4EXrpiKgPW-1" value="&lt;font style=&quot;font-size: 24px;&quot;&gt;B&lt;/font&gt;" style="ellipse;whiteSpace=wrap;html=1;aspect=fixed;" parent="1" vertex="1">
          <mxGeometry x="355" y="162" width="60" height="60" as="geometry" />
        </mxCell>
        <mxCell id="btgZ3AGMcQ4EXrpiKgPW-5" value="" style="edgeStyle=orthogonalEdgeStyle;rounded=0;orthogonalLoop=1;jettySize=auto;html=1;" parent="1" source="btgZ3AGMcQ4EXrpiKgPW-2" target="btgZ3AGMcQ4EXrpiKgPW-4" edge="1">
          <mxGeometry relative="1" as="geometry" />
        </mxCell>
        <mxCell id="btgZ3AGMcQ4EXrpiKgPW-2" value="&lt;font style=&quot;font-size: 16px;&quot;&gt;wormholeScenario = Random number between 1 and 4&lt;/font&gt;" style="whiteSpace=wrap;html=1;" parent="1" vertex="1">
          <mxGeometry x="243" y="252" width="285" height="70" as="geometry" />
        </mxCell>
        <mxCell id="btgZ3AGMcQ4EXrpiKgPW-7" value="" style="edgeStyle=orthogonalEdgeStyle;rounded=0;orthogonalLoop=1;jettySize=auto;html=1;" parent="1" source="btgZ3AGMcQ4EXrpiKgPW-4" target="btgZ3AGMcQ4EXrpiKgPW-6" edge="1">
          <mxGeometry relative="1" as="geometry" />
        </mxCell>
        <mxCell id="btgZ3AGMcQ4EXrpiKgPW-11" value="" style="edgeStyle=orthogonalEdgeStyle;rounded=0;orthogonalLoop=1;jettySize=auto;html=1;" parent="1" source="btgZ3AGMcQ4EXrpiKgPW-4" target="btgZ3AGMcQ4EXrpiKgPW-10" edge="1">
          <mxGeometry relative="1" as="geometry" />
        </mxCell>
        <mxCell id="btgZ3AGMcQ4EXrpiKgPW-4" value="&lt;font style=&quot;font-size: 16px;&quot;&gt;currentAsteroid a wormhole ?&lt;/font&gt;" style="rhombus;whiteSpace=wrap;html=1;" parent="1" vertex="1">
          <mxGeometry x="308" y="362" width="154.5" height="125" as="geometry" />
        </mxCell>
        <mxCell id="btgZ3AGMcQ4EXrpiKgPW-9" value="" style="edgeStyle=orthogonalEdgeStyle;rounded=0;orthogonalLoop=1;jettySize=auto;html=1;" parent="1" source="btgZ3AGMcQ4EXrpiKgPW-6" target="btgZ3AGMcQ4EXrpiKgPW-8" edge="1">
          <mxGeometry relative="1" as="geometry" />
        </mxCell>
        <mxCell id="btgZ3AGMcQ4EXrpiKgPW-6" value="&lt;font style=&quot;font-size: 16px;&quot;&gt;Switch&lt;/font&gt;" style="shape=process;whiteSpace=wrap;html=1;backgroundOutline=1;" parent="1" vertex="1">
          <mxGeometry x="510" y="405.75" width="90.25" height="37.5" as="geometry" />
        </mxCell>
        <mxCell id="btgZ3AGMcQ4EXrpiKgPW-8" value="&lt;font style=&quot;font-size: 24px;&quot;&gt;Z&lt;/font&gt;" style="ellipse;whiteSpace=wrap;html=1;" parent="1" vertex="1">
          <mxGeometry x="650" y="395.75" width="60" height="56.25" as="geometry" />
        </mxCell>
        <mxCell id="btgZ3AGMcQ4EXrpiKgPW-13" value="" style="edgeStyle=orthogonalEdgeStyle;rounded=0;orthogonalLoop=1;jettySize=auto;html=1;" parent="1" source="btgZ3AGMcQ4EXrpiKgPW-10" target="btgZ3AGMcQ4EXrpiKgPW-12" edge="1">
          <mxGeometry relative="1" as="geometry" />
        </mxCell>
        <mxCell id="btgZ3AGMcQ4EXrpiKgPW-10" value="&lt;font style=&quot;font-size: 16px;&quot;&gt;points = asteroidPoints&lt;/font&gt;" style="whiteSpace=wrap;html=1;" parent="1" vertex="1">
          <mxGeometry x="298" y="522" width="174.75" height="42.5" as="geometry" />
        </mxCell>
        <mxCell id="btgZ3AGMcQ4EXrpiKgPW-15" value="" style="edgeStyle=orthogonalEdgeStyle;rounded=0;orthogonalLoop=1;jettySize=auto;html=1;" parent="1" source="btgZ3AGMcQ4EXrpiKgPW-12" target="btgZ3AGMcQ4EXrpiKgPW-14" edge="1">
          <mxGeometry relative="1" as="geometry" />
        </mxCell>
        <mxCell id="btgZ3AGMcQ4EXrpiKgPW-12" value="&lt;font style=&quot;font-size: 16px;&quot;&gt;Display Asteroid Point value&lt;/font&gt;" style="shape=parallelogram;perimeter=parallelogramPerimeter;whiteSpace=wrap;html=1;fixedSize=1;" parent="1" vertex="1">
          <mxGeometry x="288" y="612" width="194.63" height="56.25" as="geometry" />
        </mxCell>
        <mxCell id="btgZ3AGMcQ4EXrpiKgPW-19" value="" style="edgeStyle=orthogonalEdgeStyle;rounded=0;orthogonalLoop=1;jettySize=auto;html=1;" parent="1" source="btgZ3AGMcQ4EXrpiKgPW-14" target="btgZ3AGMcQ4EXrpiKgPW-18" edge="1">
          <mxGeometry relative="1" as="geometry" />
        </mxCell>
        <mxCell id="btgZ3AGMcQ4EXrpiKgPW-14" value="&lt;font style=&quot;font-size: 16px;&quot;&gt;totalPoints + points&lt;/font&gt;" style="whiteSpace=wrap;html=1;" parent="1" vertex="1">
          <mxGeometry x="308.15999999999997" y="712" width="154.69" height="35.63" as="geometry" />
        </mxCell>
        <mxCell id="btgZ3AGMcQ4EXrpiKgPW-21" value="" style="edgeStyle=orthogonalEdgeStyle;rounded=0;orthogonalLoop=1;jettySize=auto;html=1;" parent="1" source="btgZ3AGMcQ4EXrpiKgPW-18" target="btgZ3AGMcQ4EXrpiKgPW-20" edge="1">
          <mxGeometry relative="1" as="geometry" />
        </mxCell>
        <mxCell id="btgZ3AGMcQ4EXrpiKgPW-18" value="&lt;font style=&quot;font-size: 16px;&quot;&gt;totalMoney + points&lt;/font&gt;" style="whiteSpace=wrap;html=1;" parent="1" vertex="1">
          <mxGeometry x="308.34999999999997" y="792" width="154.5" height="36.55" as="geometry" />
        </mxCell>
        <mxCell id="btgZ3AGMcQ4EXrpiKgPW-20" value="&lt;font style=&quot;font-size: 24px;&quot;&gt;Z&lt;/font&gt;" style="ellipse;whiteSpace=wrap;html=1;" parent="1" vertex="1">
          <mxGeometry x="353.40000000000003" y="872" width="64.4" height="65.18" as="geometry" />
        </mxCell>
        <mxCell id="btgZ3AGMcQ4EXrpiKgPW-23" value="" style="edgeStyle=orthogonalEdgeStyle;rounded=0;orthogonalLoop=1;jettySize=auto;html=1;exitX=1;exitY=0.5;exitDx=0;exitDy=0;" parent="1" source="btgZ3AGMcQ4EXrpiKgPW-22" edge="1">
          <mxGeometry relative="1" as="geometry">
            <mxPoint x="205" y="502" as="sourcePoint" />
            <mxPoint x="385" y="502" as="targetPoint" />
          </mxGeometry>
        </mxCell>
        <mxCell id="btgZ3AGMcQ4EXrpiKgPW-22" value="&lt;font style=&quot;font-size: 24px;&quot;&gt;X&lt;/font&gt;" style="ellipse;whiteSpace=wrap;html=1;aspect=fixed;" parent="1" vertex="1">
          <mxGeometry x="140" y="472" width="60" height="60" as="geometry" />
        </mxCell>
        <mxCell id="EL5hcZtObuE_Dh6P7doJ-1" value="&lt;font style=&quot;font-size: 16px;&quot;&gt;Yes&lt;/font&gt;" style="text;html=1;align=center;verticalAlign=middle;resizable=0;points=[];autosize=1;strokeColor=none;fillColor=none;" parent="1" vertex="1">
          <mxGeometry x="455" y="397" width="50" height="30" as="geometry" />
        </mxCell>
        <mxCell id="EL5hcZtObuE_Dh6P7doJ-3" value="&lt;font style=&quot;font-size: 16px;&quot;&gt;No&lt;/font&gt;" style="text;html=1;align=center;verticalAlign=middle;resizable=0;points=[];autosize=1;strokeColor=none;fillColor=none;" parent="1" vertex="1">
          <mxGeometry x="386" y="487" width="40" height="30" as="geometry" />
        </mxCell>
      </root>
    </mxGraphModel>
  </diagram>
</mxfile>
